<mxfile host="app.diagrams.net" modified="2024-09-11T01:55:19.397Z" agent="Mozilla/5.0 (Macintosh; Intel Mac OS X 10_15_7) AppleWebKit/537.36 (KHTML, like Gecko) Chrome/128.0.0.0 Safari/537.36" version="21.6.5" etag="55p126tgN4Q1Ydwa451L" type="github">
  <diagram name="Page-1" id="fBGUVaVCPIz9TlMMbFmR">
    <mxGraphModel>
      <root>
        <mxCell id="0" />
        <mxCell id="1" parent="0" />
      </root>
    </mxGraphModel>
  </diagram>
</mxfile>
